<?xml version="1.0" encoding="utf-8"?>
<!-- Generator: Adobe Illustrator 22.0.0, SVG Export Plug-In . SVG Version: 6.00 Build 0)  -->
<svg version="1.1" id="Capa_3" xmlns="http://www.w3.org/2000/svg" xmlns:xlink="http://www.w3.org/1999/xlink" x="0px" y="0px"
	 viewBox="0 0 757 836" style="enable-background:new 0 0 757 836;" xml:space="preserve">
<style type="text/css">
	.st0{fill:#EA4454;}
	.st1{fill:#E0072C;}
	.st2{fill:#DD0A0A;}
	.st3{fill:#EB523D;}
	.st4{fill:#DC527D;}
	.st5{fill:#001B9E;}
	.st6{fill:#C4AEB7;}
	.st7{fill:#FDFCD2;}
	.st8{fill:#F2B5A6;}
	.st9{fill:#B5A1AA;}
	.st10{fill:#DD0A1E;}
	.st11{fill:#9D212D;}
	.st12{fill:#E7E017;}
	.st13{fill:#CCC76D;}
	.st14{fill:#76E59D;}
	.st15{fill:none;stroke:#E7E017;stroke-miterlimit:10;}
	.st16{fill:#FB372B;}
	.st17{fill:#0A96D1;}
	.st18{fill:#0000B3;}
	.st19{fill:none;stroke:#DD0A0A;stroke-miterlimit:10;}
</style>
<rect x="-39.5" y="39.5" transform="matrix(-1.836970e-16 1 -1 -1.836970e-16 796.5 39.5)" class="st0" width="836" height="757"/>
<rect x="30" y="30" class="st1" width="697" height="776"/>
<rect x="30" y="30" class="st1" width="697" height="776"/>
<polygon class="st2" points="263.4,421.3 317.9,360 317.9,190.8 261.9,98.2 "/>
<polygon class="st2" points="495.3,421.3 451.2,360 451.2,189.3 496.8,98.2 "/>
<path class="st3" d="M439.5,194.5c-8.6-2.7-8.2-15.7-2.7-13.7s16.1,0.4,14.5-7.9c-1.5-8-8.6-30.3-64.3-33.2v-0.2
	c-0.9,0-1.9,0.1-2.8,0.1c-0.9,0-1.9-0.1-2.8-0.1v0.2c-55.7,2.8-62.8,25.2-64.3,33.2c-1.6,8.2,9,9.8,14.5,7.9s5.9,11-2.7,13.7
	s-11.8-5.1-11.8-5.1V360h134.2V189.3C451.2,189.3,448.1,197.2,439.5,194.5z"/>
<g>
	<rect x="493.6" y="433.1" class="st1" width="103.9" height="49.2"/>
	<ellipse class="st0" cx="545.1" cy="457.6" rx="30.7" ry="24.6"/>
	<ellipse class="st4" cx="545.1" cy="457.6" rx="28.2" ry="24.6"/>
</g>
<g>
	<rect x="164.7" y="737.9" class="st1" width="103.9" height="49.2"/>
	<ellipse class="st0" cx="216.2" cy="762.5" rx="30.7" ry="24.6"/>
	<ellipse class="st4" cx="216.2" cy="762.5" rx="28.2" ry="24.6"/>
</g>
<g>
	<rect x="165.3" y="433.1" class="st1" width="103.9" height="49.2"/>
	<ellipse class="st5" cx="216.8" cy="457.6" rx="30.7" ry="24.6"/>
	<ellipse class="st6" cx="216.8" cy="457.6" rx="28.2" ry="24.6"/>
</g>
<g>
	<rect x="493.2" y="737.9" class="st1" width="103.9" height="49.2"/>
	<ellipse class="st5" cx="544.7" cy="762.5" rx="30.7" ry="24.6"/>
	<ellipse class="st6" cx="544.7" cy="762.5" rx="28.2" ry="24.6"/>
</g>
<g>
	<rect x="384.2" y="433.1" class="st1" width="103.9" height="49.2"/>
	<polygon class="st5" points="485.7,458.7 435.7,435.2 386.5,458.7 436.1,481.1 	"/>
	<polygon class="st6" points="478.7,458.7 435.7,435.2 393.5,458.7 436.1,481.1 	"/>
</g>
<g>
	<rect x="603" y="433.1" class="st1" width="103.9" height="49.2"/>
	<polygon class="st5" points="704.5,458.7 654.5,435.2 605.4,458.7 655,481.1 	"/>
	<polygon class="st6" points="692,458.7 654.6,435.2 617.9,458.7 655,481.1 	"/>
</g>
<g>
	<rect x="53.5" y="737.9" class="st1" width="103.9" height="49.2"/>
	<polygon class="st5" points="155,763.5 105,740 55.9,763.5 105.4,786 	"/>
	<polygon class="st6" points="148,763.5 105,740 62.9,763.5 105.4,786 	"/>
</g>
<g>
	<rect x="274.7" y="433.1" class="st1" width="103.9" height="49.2"/>
	<polygon class="st0" points="376.2,458.7 326.2,435.2 277.1,458.7 326.7,481.1 	"/>
	<polygon class="st4" points="369.2,458.7 326.3,435.2 284.1,458.7 326.7,481.1 	"/>
</g>
<g>
	<rect x="55.9" y="433.1" class="st1" width="103.9" height="49.2"/>
	<polygon class="st0" points="157.4,458.7 107.4,435.2 58.2,458.7 107.8,481.1 	"/>
	<polygon class="st4" points="150.4,458.7 107.4,435.2 65.2,458.7 107.8,481.1 	"/>
</g>
<g>
	<rect x="603" y="737.9" class="st1" width="103.9" height="49.2"/>
	<polygon class="st0" points="704.5,763.5 654.5,740 605.4,763.5 655,786 	"/>
	<polygon class="st4" points="697.5,763.5 654.6,740 612.4,763.5 655,786 	"/>
</g>
<rect x="494.6" y="487.9" class="st0" width="99.1" height="243.3"/>
<rect x="167" y="487.9" class="st0" width="99.1" height="243.3"/>
<rect x="48.2" y="487.9" class="st0" width="99.1" height="243.3"/>
<rect x="608.6" y="75.1" class="st0" width="99.1" height="344.8"/>
<rect x="47.5" y="75.1" class="st0" width="99.1" height="344.8"/>
<rect x="608.4" y="487.9" class="st0" width="99.1" height="243.3"/>
<rect x="164.3" y="76.5" class="st0" width="99.1" height="344.8"/>
<rect x="495.6" y="76.5" class="st0" width="99.1" height="344.8"/>
<rect x="274.7" y="737.9" class="st2" width="213.3" height="49.2"/>
<g>
	<g>
		<path class="st7" d="M191.9,626.2c-2.9,0-5.3,2.4-5.3,5.3s2.4,5.3,5.3,5.3c2.9,0,5.3-2.4,5.3-5.3S194.9,626.2,191.9,626.2z
			 M191.9,635.6c-2.2,0-4-1.8-4-4c0-2.2,1.8-4,4-4c2.2,0,4,1.8,4,4C195.9,633.8,194.1,635.6,191.9,635.6z"/>
		<path class="st7" d="M191.9,612.9c2.9,0,5.3-2.4,5.3-5.3s-2.4-5.3-5.3-5.3c-2.9,0-5.3,2.4-5.3,5.3S189,612.9,191.9,612.9z
			 M191.9,603.5c2.2,0,4,1.8,4,4c0,2.2-1.8,4-4,4c-2.2,0-4-1.8-4-4C187.9,605.4,189.7,603.5,191.9,603.5z"/>
		<path class="st7" d="M191.9,518.9c-2.9,0-5.3,2.4-5.3,5.3s2.4,5.3,5.3,5.3c2.9,0,5.3-2.4,5.3-5.3S194.9,518.9,191.9,518.9z
			 M191.9,528.2c-2.2,0-4-1.8-4-4c0-2.2,1.8-4,4-4c2.2,0,4,1.8,4,4C195.9,526.4,194.1,528.2,191.9,528.2z"/>
		<path class="st7" d="M209.1,720.5v-6.9h-3.9V499.3h3.9v-3.6h-3.9h-24.3h-3.9v3.6h3.9v214.2h-3.9v6.9h-6.2v3.6h44.7v-3.6H209.1z
			 M183.8,507.5l18,18.6l-18,9.9V507.5z M183.8,540.7l17.7,22.8h-17.7V540.7z M183.8,564.8l18.2,16.8l-18.2,22.6V564.8z
			 M183.8,610.3l18.2,23.3l-18.2,13.9V610.3z M202.2,650.3h-18.4v-1.8l0.4,0.5l17.9-13.7V650.3z M202.2,631.6L183.8,608v-1.5
			l18.4-22.8V631.6z M202.2,579.9l-16.2-15h16.2V579.9z M202.2,562l-18.4-23.6v-0.8l18.4-10.1V562z M202.2,524.4l-18.4-18.8V501
			h18.4V524.4z"/>
	</g>
	<g>
		<path class="st7" d="M238.5,626.2c-2.9,0-5.3,2.4-5.3,5.3s2.4,5.3,5.3,5.3c2.9,0,5.3-2.4,5.3-5.3S241.4,626.2,238.5,626.2z
			 M238.5,635.6c-2.2,0-4-1.8-4-4c0-2.2,1.8-4,4-4c2.2,0,4,1.8,4,4C242.5,633.8,240.7,635.6,238.5,635.6z"/>
		<path class="st7" d="M238.5,612.9c2.9,0,5.3-2.4,5.3-5.3s-2.4-5.3-5.3-5.3c-2.9,0-5.3,2.4-5.3,5.3S235.6,612.9,238.5,612.9z
			 M238.5,603.5c2.2,0,4,1.8,4,4c0,2.2-1.8,4-4,4c-2.2,0-4-1.8-4-4C234.5,605.4,236.3,603.5,238.5,603.5z"/>
		<path class="st7" d="M238.5,518.9c-2.9,0-5.3,2.4-5.3,5.3s2.4,5.3,5.3,5.3c2.9,0,5.3-2.4,5.3-5.3S241.4,518.9,238.5,518.9z
			 M238.5,528.2c-2.2,0-4-1.8-4-4c0-2.2,1.8-4,4-4c2.2,0,4,1.8,4,4C242.5,526.4,240.7,528.2,238.5,528.2z"/>
		<path class="st7" d="M255.7,720.5v-6.9h-3.9V499.3h3.9v-3.6h-3.9h-24.3h-3.9v3.6h3.9v214.2h-3.9v6.9h-6.2v3.6h44.7v-3.6H255.7z
			 M230.4,507.5l18,18.6l-18,9.9V507.5z M230.4,540.7l17.7,22.8h-17.7V540.7z M230.4,564.8l18.2,16.8l-18.2,22.6V564.8z
			 M230.4,610.3l18.2,23.3l-18.2,13.9V610.3z M248.7,650.3h-18.4v-1.8l0.4,0.5l17.9-13.7V650.3z M248.7,631.6L230.4,608v-1.5
			l18.4-22.8V631.6z M248.7,579.9l-16.2-15h16.2V579.9z M248.7,562l-18.4-23.6v-0.8l18.4-10.1V562z M248.7,524.4l-18.4-18.8V501
			h18.4V524.4z"/>
	</g>
</g>
<g>
	<g>
		<path class="st7" d="M521.6,626.2c-2.9,0-5.3,2.4-5.3,5.3s2.4,5.3,5.3,5.3c2.9,0,5.3-2.4,5.3-5.3S524.5,626.2,521.6,626.2z
			 M521.6,635.6c-2.2,0-4-1.8-4-4c0-2.2,1.8-4,4-4c2.2,0,4,1.8,4,4C525.6,633.8,523.8,635.6,521.6,635.6z"/>
		<path class="st7" d="M521.6,612.9c2.9,0,5.3-2.4,5.3-5.3s-2.4-5.3-5.3-5.3c-2.9,0-5.3,2.4-5.3,5.3S518.6,612.9,521.6,612.9z
			 M521.6,603.5c2.2,0,4,1.8,4,4c0,2.2-1.8,4-4,4c-2.2,0-4-1.8-4-4C517.6,605.4,519.4,603.5,521.6,603.5z"/>
		<path class="st7" d="M521.6,518.9c-2.9,0-5.3,2.4-5.3,5.3s2.4,5.3,5.3,5.3c2.9,0,5.3-2.4,5.3-5.3S524.5,518.9,521.6,518.9z
			 M521.6,528.2c-2.2,0-4-1.8-4-4c0-2.2,1.8-4,4-4c2.2,0,4,1.8,4,4C525.6,526.4,523.8,528.2,521.6,528.2z"/>
		<path class="st7" d="M538.7,720.5v-6.9h-3.9V499.3h3.9v-3.6h-3.9h-24.3h-3.9v3.6h3.9v214.2h-3.9v6.9h-6.2v3.6H545v-3.6H538.7z
			 M513.5,507.5l18,18.6l-18,9.9V507.5z M513.5,540.7l17.7,22.8h-17.7V540.7z M513.5,564.8l18.2,16.8l-18.2,22.6V564.8z
			 M513.5,610.3l18.2,23.3l-18.2,13.9V610.3z M531.8,650.3h-18.4v-1.8l0.4,0.5l17.9-13.7V650.3z M531.8,631.6L513.5,608v-1.5
			l18.4-22.8V631.6z M531.8,579.9l-16.2-15h16.2V579.9z M531.8,562l-18.4-23.6v-0.8l18.4-10.1V562z M531.8,524.4l-18.4-18.8V501
			h18.4V524.4z"/>
	</g>
	<g>
		<path class="st7" d="M568.2,626.2c-2.9,0-5.3,2.4-5.3,5.3s2.4,5.3,5.3,5.3s5.3-2.4,5.3-5.3S571.1,626.2,568.2,626.2z M568.2,635.6
			c-2.2,0-4-1.8-4-4c0-2.2,1.8-4,4-4c2.2,0,4,1.8,4,4C572.2,633.8,570.4,635.6,568.2,635.6z"/>
		<path class="st7" d="M568.2,612.9c2.9,0,5.3-2.4,5.3-5.3s-2.4-5.3-5.3-5.3s-5.3,2.4-5.3,5.3S565.2,612.9,568.2,612.9z
			 M568.2,603.5c2.2,0,4,1.8,4,4c0,2.2-1.8,4-4,4c-2.2,0-4-1.8-4-4C564.1,605.4,565.9,603.5,568.2,603.5z"/>
		<path class="st7" d="M568.2,518.9c-2.9,0-5.3,2.4-5.3,5.3s2.4,5.3,5.3,5.3s5.3-2.4,5.3-5.3S571.1,518.9,568.2,518.9z M568.2,528.2
			c-2.2,0-4-1.8-4-4c0-2.2,1.8-4,4-4c2.2,0,4,1.8,4,4C572.2,526.4,570.4,528.2,568.2,528.2z"/>
		<path class="st7" d="M585.3,720.5v-6.9h-3.9V499.3h3.9v-3.6h-3.9h-24.3h-3.9v3.6h3.9v214.2h-3.9v6.9h-6.2v3.6h44.7v-3.6H585.3z
			 M560,507.5l18,18.6l-18,9.9V507.5z M560,540.7l17.7,22.8H560V540.7z M560,564.8l18.2,16.8L560,604.2V564.8z M560,610.3l18.2,23.3
			L560,647.6V610.3z M578.4,650.3H560v-1.8l0.4,0.5l17.9-13.7V650.3z M578.4,631.6L560,608v-1.5l18.4-22.8V631.6z M578.4,579.9
			l-16.2-15h16.2V579.9z M578.4,562L560,538.3v-0.8l18.4-10.1V562z M578.4,524.4L560,505.6V501h18.4V524.4z"/>
	</g>
</g>
<g>
	<rect x="300.4" y="488.5" class="st4" width="159.3" height="242.8"/>
	<rect x="380.2" y="488.5" class="st8" width="79.4" height="242.8"/>
	<polygon class="st1" points="459.6,488.5 300.4,488.5 300.4,505.1 381,564.1 459.6,505.1 	"/>
	<polygon class="st2" points="432,488.5 328,488.5 380.7,564.1 	"/>
	<g>
		<polygon class="st5" points="415.8,528.8 381.4,498.5 347.5,528.8 381.7,561.8 		"/>
		<polygon class="st6" points="415.8,529 381.4,503.8 347.5,529 381.7,556.5 		"/>
		<polygon class="st9" points="381.7,556.5 415.8,529 381.4,503.8 		"/>
	</g>
	<polygon class="st0" points="380.4,712.6 300.4,639.7 300.4,658.4 380.4,731.3 459.6,658.4 459.6,639.7 	"/>
	<rect x="442.1" y="661.4" class="st10" width="17.5" height="12.6"/>
	<rect x="427.3" y="675.7" class="st10" width="32.3" height="12.6"/>
	<rect x="412.5" y="690.1" class="st10" width="47.2" height="12.6"/>
	<rect x="397.6" y="704.4" class="st10" width="62" height="12.6"/>
	<rect x="382.8" y="718.7" class="st10" width="76.8" height="12.6"/>
	<rect x="300.4" y="661.4" class="st10" width="17.5" height="12.6"/>
	<rect x="300.4" y="675.7" class="st10" width="32.3" height="12.6"/>
	<rect x="300.4" y="690.1" class="st10" width="47.2" height="12.6"/>
	<rect x="300.5" y="704.4" class="st10" width="60.9" height="12.6"/>
	<rect x="300.5" y="716.2" class="st4" width="75.7" height="2.6"/>
	<rect x="383.4" y="716.2" class="st4" width="75.7" height="2.6"/>
	<rect x="300.4" y="701.8" class="st4" width="61" height="2.6"/>
	<rect x="397.8" y="702.1" class="st4" width="61" height="2.6"/>
	<rect x="412.5" y="687.8" class="st4" width="46.7" height="2.6"/>
	<rect x="427.3" y="673.1" class="st4" width="32.1" height="2.9"/>
	<rect x="300.4" y="687.8" class="st4" width="47.2" height="2.5"/>
	<rect x="300.4" y="673.8" class="st4" width="32.3" height="2.5"/>
	<rect x="300.4" y="718.7" class="st10" width="75.8" height="12.6"/>
	<rect x="300.4" y="488.5" class="st11" width="159.3" height="7.2"/>
	<polygon class="st0" points="459.6,495.7 381,564.1 459.6,505.1 	"/>
	<polygon class="st0" points="300.4,495.7 381.7,564.1 300.4,505.1 	"/>
</g>
<g>
	<rect x="609" y="49" class="st1" width="98.7" height="49.2"/>
	<polygon class="st0" points="705.5,74.6 658,51.1 611.3,74.6 658.4,97.1 	"/>
	<polygon class="st7" points="698.8,74.6 658,51.1 617.9,74.6 658.4,97.1 	"/>
</g>
<g>
	<rect x="47.5" y="49" class="st1" width="99.5" height="49.2"/>
	<polygon class="st5" points="144.7,74.6 96.8,51.1 49.7,74.6 97.2,97.1 	"/>
	<polygon class="st6" points="138,74.6 96.9,51.1 56.4,74.6 97.2,97.1 	"/>
</g>
<g>
	<rect x="47.5" y="309" class="st1" width="99.5" height="49.2"/>
	<polygon class="st5" points="144.7,334.6 96.8,311.1 49.7,334.6 97.2,357.1 	"/>
	<polygon class="st6" points="138,334.6 96.9,311.1 56.4,334.6 97.2,357.1 	"/>
</g>
<g>
	<rect x="608.4" y="309" class="st1" width="99.5" height="49.2"/>
	<polygon class="st5" points="705.7,334.6 657.8,311.1 610.7,334.6 658.2,357.1 	"/>
	<polygon class="st6" points="699,334.6 657.8,311.1 617.4,334.6 658.2,357.1 	"/>
</g>
<g>
	<g>
		<ellipse class="st0" cx="216.2" cy="73.6" rx="30.7" ry="24.6"/>
		<ellipse class="st4" cx="216.2" cy="73.6" rx="28.2" ry="24.6"/>
	</g>
	<g>
		<ellipse class="st5" cx="544.7" cy="73.6" rx="30.7" ry="24.6"/>
		<ellipse class="st6" cx="544.7" cy="73.6" rx="28.2" ry="24.6"/>
	</g>
</g>
<g>
	<rect x="164.3" y="49" class="st1" width="99.1" height="49.2"/>
	<ellipse class="st0" cx="214.5" cy="73.6" rx="29.9" ry="24.6"/>
	<ellipse class="st7" cx="214.5" cy="73.6" rx="27.4" ry="24.6"/>
</g>
<g>
	<rect x="495.6" y="49" class="st1" width="99.1" height="49.2"/>
	<ellipse class="st5" cx="543.6" cy="73.6" rx="30" ry="24.6"/>
	<ellipse class="st6" cx="543.6" cy="73.6" rx="27.5" ry="24.6"/>
</g>
<polygon class="st12" points="379.7,651.9 300.5,582.3 300.5,589.1 379.7,658.7 "/>
<polygon class="st13" points="380.3,651.9 459.5,582.3 459.5,589.1 380.3,658.7 "/>
<g>
	<path class="st2" d="M361.7,340.1h-6.3c-14.8,0-26.8-12-26.8-26.8v-97h-1v97c0,15.3,12.5,27.8,27.8,27.8h6.3V340.1z"/>
</g>
<g>
	<path class="st2" d="M361.7,345.1h-6.3c-17.6,0-31.8-14.3-31.8-31.8v-97h-1v97c0,18.1,14.7,32.8,32.8,32.8h6.3V345.1z"/>
</g>
<g>
	<path class="st2" d="M402.5,340.1h6.3c14.8,0,26.8-12,26.8-26.8v-97h1v97c0,15.3-12.5,27.8-27.8,27.8h-6.3V340.1z"/>
</g>
<g>
	<path class="st2" d="M402.5,345.1h6.3c17.6,0,31.8-14.3,31.8-31.8v-97h1v97c0,18.1-14.7,32.8-32.8,32.8h-6.3V345.1z"/>
</g>
<path class="st5" d="M263.4,49v49.2l47.7,65l1.2-2.4c9.3-17.8,32.4-27.8,68.6-29.6l6.2,0l0.3,0c34.5,1.8,57.1,10.9,67.3,27.2
	l1.3,2.1l39.6-62.4V49H263.4z"/>
<path class="st5" d="M387.5,128.2l-0.3,0l-6.2,0l-0.3,0"/>
<polygon class="st14" points="277.7,422.5 323.1,371.5 445.4,371.5 482,422.5 485.7,422.5 446.9,368.5 321.7,368.5 273.7,422.5 "/>
<g>
	<line class="st15" x1="312.3" y1="218.8" x2="268" y2="146.8"/>
	<g>
		<path class="st15" d="M279,165v53c13,4.1,14.6,19.9,14.6,19.9v125"/>
		<path class="st15" d="M284,174.1v42.2c13,4.1,14.6,21.5,14.6,21.5l0,120.7"/>
	</g>
</g>
<g>
	<line class="st15" x1="452" y1="218.8" x2="496.3" y2="146.8"/>
	<g>
		<path class="st15" d="M485.3,165v53c-13,4.1-14.6,19.9-14.6,19.9v128.9"/>
		<path class="st15" d="M480.3,174.1v42.2c-13,4.1-14.6,21.5-14.6,21.5l0,120.7"/>
	</g>
</g>
<g>
	<g>
		<polygon class="st12" points="409.7,62.4 383.7,55.4 357.5,62.4 349.1,89 357.5,114.6 384.3,123.8 409.7,114.6 419.2,89.1 		"/>
		<path d="M384.3,124.2l-27.1-9.3L348.7,89l8.5-26.9l26.4-7.1l0.1,0l26.2,7.1l9.6,27l0,0.1l-9.6,25.7l-0.2,0.1L384.3,124.2z
			 M357.8,114.3l26.5,9.1l25.1-9.1l9.4-25.2l-9.4-26.3l-25.8-7l-25.8,6.9L349.5,89L357.8,114.3z"/>
	</g>
	<g>
		<g>
			<g>
				<rect x="357.5" y="62.4" class="st12" width="52.2" height="52.2"/>
				<path d="M410,114.8h-52.7V62.2H410V114.8z M357.8,114.4h51.7V62.7h-51.7V114.4z"/>
			</g>
		</g>
		<g>
			<g>
				<rect x="347" y="88.5" transform="matrix(0.7116 -0.7025 0.7025 0.7116 48.1958 295.1312)" width="73.3" height="0.7"/>
			</g>
		</g>
		<g>
			<g>
				<rect x="383.3" y="52.2" transform="matrix(0.7116 -0.7025 0.7025 0.7116 48.1975 295.134)" width="0.7" height="73.3"/>
			</g>
		</g>
		<g>
			<g>
				
					<rect x="365.1" y="70.3" transform="matrix(0.7071 0.7071 -0.7071 0.7071 175.3441 -245.34)" class="st16" width="37.4" height="37.4"/>
			</g>
			<g>
				<path d="M383.8,115.7L357.1,89l26.8-26.8L410.6,89L383.8,115.7z M357.8,89l26.1,26.1L409.9,89l-26.1-26.1L357.8,89z"/>
			</g>
		</g>
		<g>
			<g>
				<rect x="370.9" y="76.1" class="st16" width="25.8" height="25.8"/>
			</g>
			<g>
				<path d="M396.9,102.1h-26.2V75.9h26.2V102.1z M371.2,101.6h25.3V76.4h-25.3V101.6z"/>
			</g>
		</g>
		<g>
			<g>
				
					<rect x="374.7" y="79.8" transform="matrix(0.7071 0.7071 -0.7071 0.7071 175.3361 -245.4067)" class="st17" width="18.4" height="18.4"/>
			</g>
			<g>
				<path d="M383.9,102.3l-13.3-13.3l13.3-13.3l13.3,13.3L383.9,102.3z M371.3,88.9l12.6,12.6l12.6-12.6l-12.6-12.6L371.3,88.9z"/>
			</g>
		</g>
		<g>
			<g>
				<rect x="377.7" y="82.8" class="st18" width="12.3" height="12.3"/>
			</g>
			<g>
				<path d="M390.2,95.4h-12.8V82.6h12.8V95.4z M377.9,94.9h11.9V83.1h-11.9V94.9z"/>
			</g>
		</g>
	</g>
	<g>
		<g>
			<rect x="410.2" y="88.9" width="9" height="0.5"/>
		</g>
		<g>
			<rect x="348.8" y="88.9" width="9" height="0.5"/>
		</g>
	</g>
	<g>
		<g>
			<rect x="383.8" y="115.3" width="0.5" height="9"/>
		</g>
		<g>
			<polygon points="384,62.9 383.5,62.9 383.5,55.2 384.1,55.2 			"/>
		</g>
	</g>
</g>
<path class="st7" d="M210.1,200.8v-5.3h-6.9h-13.8h-6.9v5.3h6.9v166.7h-6.9v5.3h6.9h13.8h6.9v-5.3h-6.9V200.8H210.1z M201.1,223.9
	v17.4v21.3v17.6V300v18.2h-9.7l9.7-18.2h-9.7l9.7-19.7h-9.7l9.7-17.6h-9.7l9.7-21.3h-9.7L201.1,223.9h-9.7l9.7-16.8V223.9z"/>
<path class="st7" d="M241.6,200.8v-5.3h-6.9h-13.8h-6.9v5.3h6.9v166.7h-6.9v5.3h6.9h13.8h6.9v-5.3h-6.9V200.8H241.6z M232.6,223.9
	v17.4v21.3v17.6V300v18.2h-9.7l9.7-18.2h-9.7l9.7-19.7h-9.7l9.7-17.6h-9.7l9.7-21.3h-9.7L232.6,223.9h-9.7l9.7-16.8V223.9z"/>
<path class="st7" d="M550.1,200.8v-5.3h-6.9h-13.8h-6.9v5.3h6.9v166.7h-6.9v5.3h6.9h13.8h6.9v-5.3h-6.9V200.8H550.1z M541.1,223.9
	v17.4v21.3v17.6V300v18.2h-9.7l9.7-18.2h-9.7l9.7-19.7h-9.7l9.7-17.6h-9.7l9.7-21.3h-9.7L541.1,223.9h-9.7l9.7-16.8V223.9z"/>
<path class="st7" d="M581.6,200.8v-5.3h-6.9h-13.8h-6.9v5.3h6.9v166.7h-6.9v5.3h6.9h13.8h6.9v-5.3h-6.9V200.8H581.6z M572.6,223.9
	v17.4v21.3v17.6V300v18.2h-9.7l9.7-18.2h-9.7l9.7-19.7h-9.7l9.7-17.6h-9.7l9.7-21.3h-9.7L572.6,223.9h-9.7l9.7-16.8V223.9z"/>
<rect x="276.7" y="488.5" class="st11" width="23.6" height="242.8"/>
<rect x="458" y="488.5" class="st11" width="23.6" height="242.8"/>
<line class="st19" x1="317.1" y1="216.3" x2="354.2" y2="216.3"/>
<line class="st19" x1="420.9" y1="215" x2="451.2" y2="215"/>
<path class="st12" d="M424.5,204.4c-3.2-1.7-5.4-5.1-6.7-7.5c4-2.8,6.5-7.4,6.7-12.9c0.2-5.5-1.1-9.8-4-12.9c-0.9-1-1.9-1.7-2.9-2.3
	c-0.3-0.5-0.7-1.1-1.1-1.5c-2.3-2.8-5.7-4.3-9.4-4.3c-1,0-2.1,0.1-3.1,0.4c-4-5.7-12-6.7-16.7-6.7c-1-0.1-2-0.1-2.9-0.1
	c-9.8,0-14.5,3.3-16.8,6.6c-0.7-0.1-1.6-0.2-2.3-0.2c-3.9,0-7.2,1.5-9.4,4.3c-0.4,0.5-0.7,1-1.1,1.5c-1.1,0.6-2.1,1.4-2.9,2.3
	c-2.8,3-4.2,7.5-3.9,13c0.2,5.8,3,10.5,7.2,13.2c-1.3,2.4-3.5,5.5-6.5,7.1c-2.6,1.3,1.6,8.1,6.5,14.7v138.9h62V252.4v-7.3v-25
	C422.4,213.2,427.2,205.8,424.5,204.4z M375.2,190.4c-2.3-1.2-5.2,0-9.3,1c-4.3,1-9.9-1.1-10.2-7.7c-0.3-9.1,5.3-8.2,5.3-8.2
	c-0.4-2.8,2.1-4.9,6.1-4c4,1,12.3,14.4,12.3,14.4C381.1,188.6,377.4,191.6,375.2,190.4z M385.7,188c0,0-1.9,0.5-2.3-3.3
	c-0.4-3.7-7.1-11.3-8.9-12.2c-1.8-1-4.1-8.7,12.5-7.7c0,0,14.3-0.2,10.5,7.8c0,0-6.5,5.6-7.8,8.7C388.4,184.4,389.2,188.2,385.7,188
	z M397,190.5c-2.3,1.2-5.9-1.8-4.1-4.5c0,0,8.4-13.5,12.3-14.4c3.9-1,6.5,1.1,6.1,4c0-0.1,5.6-1,5.2,8.2c-0.2,6.6-5.9,8.7-10.2,7.7
	C402,190.5,399.2,189.2,397,190.5z"/>
<path class="st14" d="M411.4,358c0.2-1.2,0.4-141.4,0.4-141.4c0-11.4-9.4-20.6-21-20.6H382c-11.6,0-21,9.2-21,20.6
	c0,0,0.1,140.2,0.4,141.4H411.4z"/>
<line class="st15" x1="159.7" y1="39.8" x2="159.7" y2="427"/>
<line class="st15" x1="598.6" y1="39.8" x2="598.6" y2="427"/>
<line class="st15" x1="162.3" y1="487" x2="162.3" y2="796.2"/>
<line class="st15" x1="598.6" y1="487" x2="598.6" y2="796.2"/>
<line class="st19" x1="50.5" y1="485" x2="708.6" y2="485"/>
<line class="st15" x1="40" y1="427" x2="719" y2="427"/>
<rect x="40" y="39" class="st15" width="679" height="757.2"/>
<line class="st15" x1="40" y1="487" x2="719" y2="487"/>
<path class="st12" d="M612.9,129.1v36.8c0,0-0.1,0.1-0.1,0.1l0.1,0V193h-0.1v44.2h0.1v43.8h90.8v-43.8V193v-63.8H612.9z
	 M683.8,151.2c0,0-0.4,0.3-0.9,0.7c-2.8-0.6-5.9-1-9.2-0.8c-0.4-0.7-1.3-2.8-0.5-4.8c0.8-1.9,2.8-3.4,6.2-4.3
	c5.6,3.1,8.4,6.2,8.5,6.3l0.4,0.4l14.4-16.9v32.9c-2.2-2.9-8.2-9.6-18.3-12.4c0.1-0.3,0.2-0.4,0.2-0.5l0.9-1.9L683.8,151.2z
	 M640.5,173.4l7.7,7.4v21.5v9.6h-16.3v-18.1C637.2,188.2,640.2,181,640.5,173.4z M649.1,181.4h18.8v20.9h-2.3
	c-1.5-4.5-4.1-7.2-6.8-7.2c-2.8,0-5.3,2.7-6.8,7.2h-2.9V181.4z M667.9,244.4h-18.8v-21.3h3.7c1.6,3.3,3.7,5.2,6,5.2
	c2.3,0,4.4-1.8,6-5.2h3.1V244.4z M649.1,222.1v-18.8h3.6l0.1-0.3c1.4-4.3,3.6-6.8,6-6.8s4.6,2.5,6,6.8l0.1,0.3h3v18.8h-3.7l-0.1,0.3
	c-1.4,3.1-3.3,4.9-5.2,4.9c-1.9,0-3.8-1.8-5.2-4.9l-0.1-0.3H649.1z M631.9,212.9h16.3v10.3v21.5L633,259.9h-1.2V212.9z M648.8,245.4
	h19.3l14.5,14.5h-48.2L648.8,245.4z M668.9,244.7v-21.5v-10.3h14.8v46.5L668.9,244.7z M684.7,212.9h0.1v-1h-0.1V194h17.9v42.2h-17.9
	V212.9z M683.6,211.9h-14.8v-9.6v-21.5l8.2-8c0.1,6.8,2.4,13.2,6.5,18.5V211.9z M677.1,172.3l-0.4-0.4l-8.7,8.5h-18.8l-8.6-8.4
	c0-6.4-1.9-11.9-5.8-17.1c5.1,3.2,15.9,9.4,23.5,9.4c8.3,0,20.3-8,24.6-11.1C681.1,157.1,677.1,166.5,677.1,172.3
	C677.1,172.3,677.1,172.3,677.1,172.3z M644.1,145.9c-0.8-2-2.8-3.6-5.9-4.6c1.3-0.7,3.7-1.9,6.7-3c6-1.9,11.1-2,12.6-2v27
	c-8.4-0.4-20.7-8.1-24.2-10.3c2.9-0.7,6-1,9.5-0.8l0.3,0l0.2-0.2C643.5,151.8,645.3,148.9,644.1,145.9z M658.7,163.3v-27
	c8.1,0.4,14.6,2.6,19.3,5c-3.1,1-5,2.6-5.8,4.6c-1.2,3,0.6,5.9,0.7,6l0.2,0.2l0.3,0c3-0.2,5.8,0.1,8.4,0.6
	C677.3,155.9,666.4,163,658.7,163.3z M702.6,130.3l-14.4,16.9c-1-1-3.9-3.7-8.6-6.2c-1-0.6-11.1-6.7-21.4-5.7l0,0c0,0,0,0,0,0
	c0,0,0,0,0,0c-5.1-0.5-10.2,0.8-14.1,2.3c-5.2,1.7-11,4.6-15.9,9.7l-13.7-17.1h88.2V130.3z M613.9,131l14.1,17.7l0.4-0.4
	c2.6-2.7,5.4-4.8,8.2-6.4l0.2,0.1c3.4,0.9,5.5,2.4,6.3,4.3c0.8,2.1-0.1,4.1-0.5,4.8c-3.8-0.2-7.3,0.3-10.4,1.1l-3.4-2.3l2.4,2.6
	c-9.5,2.8-15.2,9.2-17.4,12V131z M613.9,166.2c1.1-1.7,7-9.8,18.2-12.9c5.1,5.7,7.4,11.7,7.4,18.9c0,7.7-2.9,15.1-8.2,20.7h-17.4
	V166.2z M613.9,194h16.6v42.2h-16.6V194z M630.9,237.1v23.8h1.2l-18.2,18.3v-42H630.9z M614.6,279.9l18.9-19h50.2l19,19v0H614.6z
	 M702.6,278.4l-18-18v-23.3h18V278.4z M684.6,193V191l-0.1-0.1c-4.2-5.4-6.4-11.8-6.4-18.7c0-5.6,4.2-15.4,5.9-19
	c11.9,3.2,18,12.2,18.7,13.2V193H684.6z"/>
<path class="st12" d="M612.9,518.9v36.8c0,0-0.1,0.1-0.1,0.1l0.1,0v26.9h-0.1v44.2h0.1v43.8h90.8v-43.8v-44.2v-63.8H612.9z
	 M683.8,541c0,0-0.4,0.3-0.9,0.7c-2.8-0.6-5.9-1-9.2-0.8c-0.4-0.7-1.3-2.8-0.5-4.8c0.8-1.9,2.8-3.4,6.2-4.3c5.6,3.1,8.4,6.2,8.5,6.3
	l0.4,0.4l14.4-16.9v32.9c-2.2-2.9-8.2-9.6-18.3-12.4c0.1-0.3,0.2-0.4,0.2-0.5l0.9-1.9L683.8,541z M640.5,563.2l7.7,7.4v21.5v9.6
	h-16.3v-18.1C637.2,578,640.2,570.8,640.5,563.2z M649.1,571.1h18.8v20.9h-2.3c-1.5-4.5-4.1-7.2-6.8-7.2c-2.8,0-5.3,2.7-6.8,7.2
	h-2.9V571.1z M667.9,634.1h-18.8v-21.3h3.7c1.6,3.3,3.7,5.2,6,5.2c2.3,0,4.4-1.8,6-5.2h3.1V634.1z M649.1,611.9v-18.8h3.6l0.1-0.3
	c1.4-4.3,3.6-6.8,6-6.8s4.6,2.5,6,6.8l0.1,0.3h3v18.8h-3.7l-0.1,0.3c-1.4,3.1-3.3,4.9-5.2,4.9c-1.9,0-3.8-1.8-5.2-4.9l-0.1-0.3
	H649.1z M631.9,602.6h16.3v10.3v21.5L633,649.6h-1.2V602.6z M648.8,635.1h19.3l14.5,14.5h-48.2L648.8,635.1z M668.9,634.4v-21.5
	v-10.3h14.8v46.5L668.9,634.4z M684.7,602.6h0.1v-1h-0.1v-17.9h17.9v42.2h-17.9V602.6z M683.6,601.6h-14.8v-9.6v-21.5l8.2-8
	c0.1,6.8,2.4,13.2,6.5,18.5V601.6z M677.1,562.1l-0.4-0.4l-8.7,8.5h-18.8l-8.6-8.4c0-6.4-1.9-11.9-5.8-17.1
	c5.1,3.2,15.9,9.4,23.5,9.4c8.3,0,20.3-8,24.6-11.1C681.1,546.9,677.1,556.3,677.1,562.1C677.1,562,677.1,562,677.1,562.1z
	 M644.1,535.7c-0.8-2-2.8-3.6-5.9-4.6c1.3-0.7,3.7-1.9,6.7-3c6-1.9,11.1-2,12.6-2v27c-8.4-0.4-20.7-8.1-24.2-10.3
	c2.9-0.7,6-1,9.5-0.8l0.3,0l0.2-0.2C643.5,541.5,645.3,538.7,644.1,535.7z M658.7,553.1v-27c8.1,0.4,14.6,2.6,19.3,5
	c-3.1,1-5,2.6-5.8,4.6c-1.2,3,0.6,5.9,0.7,6l0.2,0.2l0.3,0c3-0.2,5.8,0.1,8.4,0.6C677.3,545.6,666.4,552.8,658.7,553.1z M702.6,520
	L688.2,537c-1-1-3.9-3.7-8.6-6.2c-1-0.6-11.1-6.7-21.4-5.7l0,0c0,0,0,0,0,0c0,0,0,0,0,0c-5.1-0.5-10.2,0.8-14.1,2.3
	c-5.2,1.7-11,4.6-15.9,9.7l-13.7-17.1h88.2V520z M613.9,520.8l14.1,17.7l0.4-0.4c2.6-2.7,5.4-4.8,8.2-6.4l0.2,0.1
	c3.4,0.9,5.5,2.4,6.3,4.3c0.8,2.1-0.1,4.1-0.5,4.8c-3.8-0.2-7.3,0.3-10.4,1.1l-3.4-2.3l2.4,2.6c-9.5,2.8-15.2,9.2-17.4,12V520.8z
	 M613.9,556c1.1-1.7,7-9.8,18.2-12.9c5.1,5.7,7.4,11.7,7.4,18.9c0,7.7-2.9,15.1-8.2,20.7h-17.4V556z M613.9,583.7h16.6v42.2h-16.6
	V583.7z M630.9,626.9v23.8h1.2l-18.2,18.3v-42H630.9z M614.6,669.6l18.9-19h50.2l19,19v0H614.6z M702.6,668.2l-18-18v-23.3h18V668.2
	z M684.6,582.7v-1.9l-0.1-0.1c-4.2-5.4-6.4-11.8-6.4-18.7c0-5.6,4.2-15.4,5.9-19c11.9,3.2,18,12.2,18.7,13.2v26.5H684.6z"/>
<path class="st12" d="M51.7,129.1v36.8c0,0-0.1,0.1-0.1,0.1l0.1,0V193h-0.1v44.2h0.1v43.8h90.8v-43.8V193v-63.8H51.7z M122.7,151.2
	c0,0-0.4,0.3-0.9,0.7c-2.8-0.6-5.9-1-9.2-0.8c-0.4-0.7-1.3-2.8-0.5-4.8c0.8-1.9,2.8-3.4,6.2-4.3c5.6,3.1,8.4,6.2,8.5,6.3l0.4,0.4
	l14.4-16.9v32.9c-2.2-2.9-8.2-9.6-18.3-12.4c0.1-0.3,0.2-0.4,0.2-0.5l0.9-1.9L122.7,151.2z M79.3,173.4l7.7,7.4v21.5v9.6H70.7v-18.1
	C76,188.2,79,181,79.3,173.4z M88,181.4h18.8v20.9h-2.3c-1.5-4.5-4.1-7.2-6.8-7.2c-2.8,0-5.3,2.7-6.8,7.2H88V181.4z M106.7,244.4H88
	v-21.3h3.7c1.6,3.3,3.7,5.2,6,5.2c2.3,0,4.4-1.8,6-5.2h3.1V244.4z M88,222.1v-18.8h3.6l0.1-0.3c1.4-4.3,3.6-6.8,6-6.8s4.6,2.5,6,6.8
	l0.1,0.3h3v18.8H103l-0.1,0.3c-1.4,3.1-3.3,4.9-5.2,4.9c-1.9,0-3.8-1.8-5.2-4.9l-0.1-0.3H88z M70.7,212.9H87v10.3v21.5l-15.1,15.2
	h-1.2V212.9z M87.7,245.4H107l14.5,14.5H73.3L87.7,245.4z M107.7,244.7v-21.5v-10.3h14.8v46.5L107.7,244.7z M123.6,212.9h0.1v-1
	h-0.1V194h17.9v42.2h-17.9V212.9z M122.5,211.9h-14.8v-9.6v-21.5l8.2-8c0.1,6.8,2.4,13.2,6.5,18.5V211.9z M115.9,172.3l-0.4-0.4
	l-8.7,8.5H87.9l-8.6-8.4c0-6.4-1.9-11.9-5.8-17.1c5.1,3.2,15.9,9.4,23.5,9.4c8.3,0,20.3-8,24.6-11.1
	C119.9,157.1,115.9,166.5,115.9,172.3C115.9,172.3,115.9,172.3,115.9,172.3z M83,145.9c-0.8-2-2.8-3.6-5.9-4.6
	c1.3-0.7,3.7-1.9,6.7-3c6-1.9,11.1-2,12.6-2v27c-8.4-0.4-20.7-8.1-24.2-10.3c2.9-0.7,6-1,9.5-0.8l0.3,0l0.2-0.2
	C82.3,151.8,84.1,148.9,83,145.9z M97.6,163.3v-27c8.1,0.4,14.6,2.6,19.3,5c-3.1,1-5,2.6-5.8,4.6c-1.2,3,0.6,5.9,0.7,6l0.2,0.2
	l0.3,0c3-0.2,5.8,0.1,8.4,0.6C116.1,155.9,105.2,163,97.6,163.3z M141.5,130.3L127,147.2c-1-1-3.9-3.7-8.6-6.2
	c-1-0.6-11.1-6.7-21.4-5.7l0,0c0,0,0,0,0,0c0,0,0,0,0,0c-5.1-0.5-10.2,0.8-14.1,2.3c-5.2,1.7-11,4.6-15.9,9.7l-13.7-17.1h88.2V130.3
	z M52.7,131l14.1,17.7l0.4-0.4c2.6-2.7,5.4-4.8,8.2-6.4l0.2,0.1c3.4,0.9,5.5,2.4,6.3,4.3c0.8,2.1-0.1,4.1-0.5,4.8
	c-3.8-0.2-7.3,0.3-10.4,1.1l-3.4-2.3l2.4,2.6c-9.5,2.8-15.2,9.2-17.4,12V131z M52.7,166.2c1.1-1.7,7-9.8,18.2-12.9
	c5.1,5.7,7.4,11.7,7.4,18.9c0,7.7-2.9,15.1-8.2,20.7H52.7V166.2z M52.7,194h16.6v42.2H52.7V194z M69.7,237.1v23.8h1.2l-18.2,18.3
	v-42H69.7z M53.4,279.9l18.9-19h50.2l19,19v0H53.4z M141.5,278.4l-18-18v-23.3h18V278.4z M123.5,193V191l-0.1-0.1
	c-4.2-5.4-6.4-11.8-6.4-18.7c0-5.6,4.2-15.4,5.9-19c11.9,3.2,18,12.2,18.7,13.2V193H123.5z"/>
<path class="st12" d="M51.7,518.9v36.8c0,0-0.1,0.1-0.1,0.1l0.1,0v26.9h-0.1v44.2h0.1v43.8h90.8v-43.8v-44.2v-63.8H51.7z M122.7,541
	c0,0-0.4,0.3-0.9,0.7c-2.8-0.6-5.9-1-9.2-0.8c-0.4-0.7-1.3-2.8-0.5-4.8c0.8-1.9,2.8-3.4,6.2-4.3c5.6,3.1,8.4,6.2,8.5,6.3l0.4,0.4
	l14.4-16.9v32.9c-2.2-2.9-8.2-9.6-18.3-12.4c0.1-0.3,0.2-0.4,0.2-0.5l0.9-1.9L122.7,541z M79.3,563.2l7.7,7.4v21.5v9.6H70.7v-18.1
	C76,578,79,570.8,79.3,563.2z M88,571.1h18.8v20.9h-2.3c-1.5-4.5-4.1-7.2-6.8-7.2c-2.8,0-5.3,2.7-6.8,7.2H88V571.1z M106.7,634.1H88
	v-21.3h3.7c1.6,3.3,3.7,5.2,6,5.2c2.3,0,4.4-1.8,6-5.2h3.1V634.1z M88,611.9v-18.8h3.6l0.1-0.3c1.4-4.3,3.6-6.8,6-6.8s4.6,2.5,6,6.8
	l0.1,0.3h3v18.8H103l-0.1,0.3c-1.4,3.1-3.3,4.9-5.2,4.9c-1.9,0-3.8-1.8-5.2-4.9l-0.1-0.3H88z M70.7,602.6H87v10.3v21.5l-15.1,15.2
	h-1.2V602.6z M87.7,635.1H107l14.5,14.5H73.3L87.7,635.1z M107.7,634.4v-21.5v-10.3h14.8v46.5L107.7,634.4z M123.6,602.6h0.1v-1
	h-0.1v-17.9h17.9v42.2h-17.9V602.6z M122.5,601.6h-14.8v-9.6v-21.5l8.2-8c0.1,6.8,2.4,13.2,6.5,18.5V601.6z M115.9,562.1l-0.4-0.4
	l-8.7,8.5H87.9l-8.6-8.4c0-6.4-1.9-11.9-5.8-17.1c5.1,3.2,15.9,9.4,23.5,9.4c8.3,0,20.3-8,24.6-11.1
	C119.9,546.9,115.9,556.3,115.9,562.1C115.9,562,115.9,562,115.9,562.1z M83,535.7c-0.8-2-2.8-3.6-5.9-4.6c1.3-0.7,3.7-1.9,6.7-3
	c6-1.9,11.1-2,12.6-2v27c-8.4-0.4-20.7-8.1-24.2-10.3c2.9-0.7,6-1,9.5-0.8l0.3,0l0.2-0.2C82.3,541.5,84.1,538.7,83,535.7z
	 M97.6,553.1v-27c8.1,0.4,14.6,2.6,19.3,5c-3.1,1-5,2.6-5.8,4.6c-1.2,3,0.6,5.9,0.7,6l0.2,0.2l0.3,0c3-0.2,5.8,0.1,8.4,0.6
	C116.1,545.6,105.2,552.8,97.6,553.1z M141.5,520L127,537c-1-1-3.9-3.7-8.6-6.2c-1-0.6-11.1-6.7-21.4-5.7l0,0c0,0,0,0,0,0
	c0,0,0,0,0,0c-5.1-0.5-10.2,0.8-14.1,2.3c-5.2,1.7-11,4.6-15.9,9.7l-13.7-17.1h88.2V520z M52.7,520.8l14.1,17.7l0.4-0.4
	c2.6-2.7,5.4-4.8,8.2-6.4l0.2,0.1c3.4,0.9,5.5,2.4,6.3,4.3c0.8,2.1-0.1,4.1-0.5,4.8c-3.8-0.2-7.3,0.3-10.4,1.1l-3.4-2.3l2.4,2.6
	c-9.5,2.8-15.2,9.2-17.4,12V520.8z M52.7,556c1.1-1.7,7-9.8,18.2-12.9c5.1,5.7,7.4,11.7,7.4,18.9c0,7.7-2.9,15.1-8.2,20.7H52.7V556z
	 M52.7,583.7h16.6v42.2H52.7V583.7z M69.7,626.9v23.8h1.2l-18.2,18.3v-42H69.7z M53.4,669.6l18.9-19h50.2l19,19v0H53.4z
	 M141.5,668.2l-18-18v-23.3h18V668.2z M123.5,582.7v-1.9l-0.1-0.1c-4.2-5.4-6.4-11.8-6.4-18.7c0-5.6,4.2-15.4,5.9-19
	c11.9,3.2,18,12.2,18.7,13.2v26.5H123.5z"/>
<line class="st15" x1="264.4" y1="388.8" x2="298.6" y2="358.6"/>
<line class="st15" x1="465.7" y1="358.6" x2="493.6" y2="395.5"/>
</svg>
