<?xml version="1.0" encoding="utf-8"?>
<!-- Generator: Adobe Illustrator 22.0.0, SVG Export Plug-In . SVG Version: 6.00 Build 0)  -->
<svg version="1.1" id="Capa_1" xmlns="http://www.w3.org/2000/svg" xmlns:xlink="http://www.w3.org/1999/xlink" x="0px" y="0px"
	 viewBox="0 0 30.3 30.3" style="enable-background:new 0 0 30.3 30.3;" xml:space="preserve">
<style type="text/css">
	.st0{fill:#FBDAE7;}
</style>
<title>Page 1</title>
<desc>Created with Sketch.</desc>
<g id="Page-1">
	<path class="st0" d="M0.7,29.5c1,1,2,1,2.9-0.1L15.1,18l11.5,11.4c0.9,1,1.9,1.1,2.9,0.1s1-2-0.1-2.9L18.1,15.1L29.5,3.6
		c1-0.9,1.1-1.9,0.1-2.9s-2-1-2.9,0.1L15.1,12.2L3.6,0.8c-0.9-1-1.9-1.1-2.9-0.1s-1,2,0.1,2.9l11.4,11.5L0.8,26.6
		C-0.2,27.6-0.3,28.5,0.7,29.5z"/>
</g>
</svg>
